<svg viewBox="0 0 100 100" xmlns="http://www.w3.org/2000/svg" role="img">
  <title>Redfearn Group: Icon Only, opaque black and white</title>
  <desc>Opaque black-and-white two-tone version: a solid black badge with genuine white (not cream) letterforms, and a solid black wordmark. Both colors are baked in as real fills, not a knockout cutout, so it reproduces correctly on any backdrop rather than only reading as black-and-white over a literal white surface. Real Space Grotesk Bold and JetBrains Mono Medium vector outlines, no font dependency.</desc>
  <rect x="0" y="0" width="100" height="100" rx="8" fill="#000000"/>
    <g fill="#FFFFFF">
      <g transform="translate(-1.4960,79.1455) scale(0.083273,-0.083273)"><path d="M66 0V700H370Q436 700 485.0 677.0Q534 654 561.0 612.0Q588 570 588 513V501Q588 438 558.0 399.0Q528 360 484 342V324Q524 322 546.0 296.5Q568 271 568 229V0H436V210Q436 234 423.5 249.0Q411 264 382 264H198V0ZM198 384H356Q403 384 429.5 409.5Q456 435 456 477V487Q456 529 430.0 554.5Q404 580 356 580H198Z"/></g>
      <g transform="translate(45.8697,79.1455) scale(0.083273,-0.083273)"><path d="M308 -14Q236 -14 177.5 18.5Q119 51 84.5 113.5Q50 176 50 266V434Q50 569 126.0 641.5Q202 714 332 714Q461 714 531.5 645.5Q602 577 602 460V456H472V464Q472 501 456.5 531.0Q441 561 410.0 578.5Q379 596 332 596Q262 596 222.0 553.0Q182 510 182 436V264Q182 191 222.0 146.5Q262 102 334 102Q406 102 439.0 140.0Q472 178 472 236V246H306V358H602V0H480V67H462Q455 50 439.5 31.0Q424 12 393.0 -1.0Q362 -14 308 -14Z"/></g>
    </g>
</svg>
