<svg viewBox="0 0 374 115" xmlns="http://www.w3.org/2000/svg" role="img">
  <title>Redfearn Group: Wordmark Only, for dark backgrounds</title>
  <desc>Real Space Grotesk Bold and JetBrains Mono Medium vector outlines, no font dependency.</desc>
  <g fill="#F7F4EF">
    <g transform="translate(9.0971,66.0000) scale(0.074286,-0.074286)"><path d="M66 0V700H370Q436 700 485.0 677.0Q534 654 561.0 612.0Q588 570 588 513V501Q588 438 558.0 399.0Q528 360 484 342V324Q524 322 546.0 296.5Q568 271 568 229V0H436V210Q436 234 423.5 249.0Q411 264 382 264H198V0ZM198 384H356Q403 384 429.5 409.5Q456 435 456 477V487Q456 529 430.0 554.5Q404 580 356 580H198Z"/></g>
    <g transform="translate(55.1067,66.0000) scale(0.074286,-0.074286)"><path d="M66 0V700H516V580H198V413H488V293H198V120H522V0Z"/></g>
    <g transform="translate(95.4379,66.0000) scale(0.074286,-0.074286)"><path d="M46 0V116H138V584H46V700H334Q475 700 548.5 628.5Q622 557 622 416V284Q622 143 548.5 71.5Q475 0 334 0ZM270 120H336Q416 120 453.0 162.0Q490 204 490 280V420Q490 497 453.0 538.5Q416 580 336 580H270Z"/></g>
    <g transform="translate(143.9227,66.0000) scale(0.074286,-0.074286)"><path d="M66 0V700H506V580H198V411H482V291H198V0Z"/></g>
    <g transform="translate(182.7979,66.0000) scale(0.074286,-0.074286)"><path d="M66 0V700H516V580H198V413H488V293H198V120H522V0Z"/></g>
    <g transform="translate(223.1291,66.0000) scale(0.074286,-0.074286)"><path d="M18 0 202 700H432L616 0H480L442 154H192L154 0ZM223 276H411L326 617H308Z"/></g>
    <g transform="translate(269.2843,66.0000) scale(0.074286,-0.074286)"><path d="M66 0V700H370Q436 700 485.0 677.0Q534 654 561.0 612.0Q588 570 588 513V501Q588 438 558.0 399.0Q528 360 484 342V324Q524 322 546.0 296.5Q568 271 568 229V0H436V210Q436 234 423.5 249.0Q411 264 382 264H198V0ZM198 384H356Q403 384 429.5 409.5Q456 435 456 477V487Q456 529 430.0 554.5Q404 580 356 580H198Z"/></g>
    <g transform="translate(315.2939,66.0000) scale(0.074286,-0.074286)"><path d="M66 0V700H317L456 90H474V700H604V0H353L214 610H196V0Z"/></g>
  </g>

  <g fill="#F7F4EF" fill-opacity="0.65">
    <g transform="translate(127.9177,101.0000) scale(0.031507,-0.031507)"><path d="M304.1499938964844 -10Q235.90008544921875 -10 185.45016479492188 15.749969482421875Q135.000244140625 41.49993896484375 107.30029296875 89.59991455078125Q79.600341796875 137.69989013671875 79.600341796875 202.9998779296875V527.0001220703125Q79.600341796875 593.3001098632812 107.30029296875 640.9000854492188Q135.000244140625 688.5000610351562 185.45016479492188 714.2500305175781Q235.90008544921875 740 304.1499938964844 740Q372.39990234375 740 422.3498229980469 713.9000244140625Q472.29974365234375 687.800048828125 499.6496887207031 640.2679950066333Q526.9996337890625 592.7359411851415 526.9996337890625 527.0001220703125H419.0003662109375Q419.0003662109375 583.600341796875 388.84453311774246 613.9504699707031Q358.6887000245475 644.3005981445312 303.94426456305496 644.3005981445312Q249.1998291015625 644.3005981445312 218.39971923828125 614.239541053772Q187.599609375 584.1784839630127 187.599609375 527.7001342773438V202.9998779296875Q187.599609375 146.72272198016827 218.39971923828125 115.86105581430289Q249.1998291015625 84.9993896484375 303.94426456305496 84.9993896484375Q358.6887000245475 84.9993896484375 388.84453311774246 115.89315241033381Q419.0003662109375 146.78691517223012 419.0003662109375 203.12260020862925V284.90020751953125H282.9998779296875V380.399658203125H526.9996337890625V202.9998779296875Q526.9996337890625 138.27537910893278 499.6496887207031 90.23766514040389Q472.29974365234375 42.199951171875 422.3498229980469 16.0999755859375Q372.39990234375 -10 304.1499938964844 -10Z"/></g>
    <g transform="translate(152.4930,101.0000) scale(0.031507,-0.031507)"><path d="M83.90032958984375 0V730H312.6002197265625Q381.50006103515625 730 432.89996337890625 703.3500061035156Q484.29986572265625 676.7000122070312 512.6498107910156 628.800048828125Q540.999755859375 580.9000854492188 540.999755859375 516.400146484375Q540.999755859375 443.30010986328125 503.69970703125 389.400146484375Q466.399658203125 335.50018310546875 402.49957275390625 314.000244140625L550.999755859375 0H427.90045166015625L294.50018310546875 299.8004150390625H191.599609375V0ZM191.599609375 395.49981689453125H312.6002197265625Q366.80029296875 395.49981689453125 398.8503723144531 427.8499450683594Q430.90045166015625 460.2000732421875 430.90045166015625 514.3002319335938Q430.90045166015625 569.7003784179688 398.8503723144531 602.00048828125Q366.80029296875 634.3005981445312 312.6002197265625 634.3005981445312H191.599609375Z"/></g>
    <g transform="translate(177.0684,101.0000) scale(0.031507,-0.031507)"><path d="M300 -10Q231.90008544921875 -10 182.45016479492188 15.749969482421875Q133.000244140625 41.49993896484375 106.30029296875 89.59991455078125Q79.600341796875 137.69989013671875 79.600341796875 202.9998779296875V527.0001220703125Q79.600341796875 593.0001220703125 106.30029296875 640.7500915527344Q133.000244140625 688.5000610351562 182.45016479492188 714.2500305175781Q231.90008544921875 740 300 740Q368.39990234375 740 417.6998291015625 714.2500305175781Q466.999755859375 688.5000610351562 493.69970703125 640.7500915527344Q520.399658203125 593.0001220703125 520.399658203125 527.7001342773438V202.9998779296875Q520.399658203125 137.69989013671875 493.69970703125 89.59991455078125Q466.999755859375 41.49993896484375 417.6998291015625 15.749969482421875Q368.39990234375 -10 300 -10ZM300 85.69940185546875Q354.8001708984375 85.69940185546875 383.60028076171875 116.19952392578125Q412.400390625 146.69964599609375 412.400390625 202.9998779296875V527.0001220703125Q412.400390625 583.600341796875 383.7502746582031 613.9504699707031Q355.10015869140625 644.3005981445312 300 644.3005981445312Q245.599853515625 644.3005981445312 216.5997314453125 613.9504699707031Q187.599609375 583.600341796875 187.599609375 527.0001220703125V202.9998779296875Q187.599609375 146.69964599609375 216.74972534179688 116.19952392578125Q245.89984130859375 85.69940185546875 300 85.69940185546875Z"/></g>
    <g transform="translate(201.6437,101.0000) scale(0.031507,-0.031507)"><path d="M300 -10Q195.30010986328125 -10 138.15023803710938 47.549957275390625Q81.0003662109375 105.09991455078125 81.0003662109375 204.1998291015625V730H188.9996337890625V204.49981689453125Q188.9996337890625 148.69964599609375 216.69970703125 116.84951782226562Q244.3997802734375 84.9993896484375 300 84.9993896484375Q354.6002197265625 84.9993896484375 382.80029296875 116.84951782226562Q411.0003662109375 148.69964599609375 411.0003662109375 204.49981689453125V730H518.9996337890625V204.1998291015625Q518.9996337890625 104.69989013671875 462.19976806640625 47.349945068359375Q405.39990234375 -10 300 -10Z"/></g>
    <g transform="translate(226.2191,101.0000) scale(0.031507,-0.031507)"><path d="M84.2003173828125 0V730H323.400146484375Q394.10003662109375 730 446.3257525044103 702.8064040625655Q498.5514683877268 675.6128081251311 527.2756121235509 626.3564834082687Q555.999755859375 577.1001586914062 555.999755859375 509.8910475869215Q555.999755859375 443.70025634765625 527.1498107910156 394.00030517578125Q498.29986572265625 344.30035400390625 446.24637785412017 317.0503845214844Q394.1928899855841 289.8004150390625 323.400146484375 289.8004150390625H192.1995849609375V0ZM192.1995849609375 386.999755859375H323.400146484375Q378.9964388333834 386.999755859375 412.44844524676984 420.47637142352204Q445.90045166015625 453.9529869876691 445.90045166015625 509.90020751953125Q445.90045166015625 566.5004272460938 412.44844524676984 599.6505432128906Q378.9964388333834 632.8006591796875 323.400146484375 632.8006591796875H192.1995849609375Z"/></g>
  </g>
</svg>
